<?xml version="1.0" standalone="yes"?>
<svg xmlns="http://www.w3.org/2000/svg" width="606" height="805">
<path style="fill:#5f5956; stroke:none;" d="M0 0L0 99L88 98L88 99L0 102L0 168L8 168L8 176L19 176L19 192L24 192L24 197C29.701 196.996 33.3482 197.122 35 191L32 188L36 187L39 192C36.716 193.59 38.1645 196.956 41 195C48.3988 215.837 58.7668 234.609 68.8218 254.039C72.0239 260.227 73.4023 273.487 81 276C75.811 282.23 65.4372 280 58 280C38.6062 280 19.3596 280.16 0 280C1.65667 284.992 6.45831 283.992 11 284C20.0147 284.015 28.9353 285.104 38 284.996C50.7995 284.844 64.1773 282.384 76.9954 284.189C81.6584 284.846 84.8347 292.731 88.7222 292.079C91.8452 291.555 90.7231 286.098 94.1481 285.028C106.015 281.32 127.017 283.147 139 286L128 299L132 299L132 300C124.433 300.851 113.555 309.08 113 317C108.568 317.685 105.676 320.921 104 325L99 325L102 328L102 329C80.5888 332.375 78 355.852 78 373C78 381.062 76.3737 391.126 78.314 398.961C79.5149 403.809 83.472 406.625 83.9066 412C84.7735 422.721 81.1266 433.412 85.1088 444C87.7321 450.975 94.3721 456.028 98.5363 462.17C102.425 467.904 104.447 475.738 107.586 482C113.27 493.337 115.709 519.808 130 523L131 522C130.304 516.291 132.316 509.432 139 510L136 514L143 519L144 519L157 448L160 448L162.043 421L168 408C176.05 409.657 183.906 406.325 192 406.019C195.37 405.891 199.506 406.929 200 403C227.434 397.816 254.954 397.65 283 396.209C295.09 395.588 311.187 397.962 320 387C323.825 388.221 335.129 392.963 336 389L340 387C348.617 389.009 357.307 396.364 356 406L368 420L366.835 408L360.754 372L358.737 352L342 324L344 324L339 290L343 286L346 288C352.499 280.198 371.971 283.844 381 286L380 288L382 292L400 291L400 287L408 287L408 288L403 296L408 301L408 296L410 296C410.026 308.477 410.256 322.636 408.863 335C408.057 342.155 402.95 349.892 407 357C411.393 342.742 416.073 327.793 418.448 313C419.986 303.412 420.112 293.133 432 293L432 304L456 304L456 301L464 301L464 304C473.538 304 489.877 308.227 498 304C498.044 316.965 510.022 319.496 520 325L520 317L522 336L528 336L528 342L539 344C534.783 344.904 536 349.356 536 353C540.046 353.561 546.046 355.004 543 360L544 365L547 364L548 368L544 368C543.935 373.889 541.363 386.653 535.789 389.824C532.585 391.647 528.497 390.445 525 390.665C515.305 391.275 505.634 391.782 496 393L496 395L595 396L582.028 400.573L579 416L584 421L584 416L586 416L584 426L606 427L606 276L600 279C594.397 277.344 589.698 277.329 587 283C577.89 275.802 569.289 278 558 278C536.278 278 512.438 282.98 491 279L491 277L492 276L528 275.089L588 273C590.35 254.906 602.687 237.99 605.776 219.961C610.078 194.851 606 165.507 606 140L606 108C606 104.11 607.112 98.7193 604 96L604 95C607.877 91.3299 600.2 91.1556 597.83 91.0803C588.83 90.7942 578.885 90.4339 570 91.1736C540.492 93.6305 510.4 90.9097 481 92.4598C469.422 93.0703 456.231 90.6802 445 94L445 100L448 99L442.486 121L434 182L433 180L432 180L432 184L431 184L430.104 144L435 93C421.157 90.43 405.655 92.2117 392 95L385.91 172L384 198C381.313 206.476 383.271 213.471 382.896 222C382.543 230.014 380.332 237.978 380.221 246C380.104 254.415 381.933 266.185 376 273L376 269L375 269L374 275L423 279L416 280L416 282C407.28 279.422 396.956 281.182 388 281.625C377.212 282.159 365.878 281 355 281C350.122 281 339.113 279.354 336.043 284.314C332.289 290.38 337.989 305.926 338 313C338.027 329.856 351.168 340.995 356.616 357C361.891 372.494 360.872 390.934 365 407C359.162 403.974 357.763 397.342 354.535 392C346.926 379.406 339.546 369.504 324 368L307 377L304 376L295 384L273 386L272 386C267.89 382.371 255.001 387.673 250 388.664C238.29 390.985 227.393 388.682 215.83 389.265C209.815 389.568 204.631 392.127 199 389L198 393L196 391L192 392L192 394L190 393C183.791 398.022 172.502 396.868 165.185 402.005C153.809 409.991 155.19 425.206 153 437L150 436L145 456L139 458L137 451L128 453L128 456L120 453L104 461L101 457L101 459L98 458C99.8524 454.434 100.71 451.404 97 449L98 446L95 448C93.4776 442.869 87.7453 442.022 86.3032 436.981C82.2162 422.695 86.7815 403.603 88 389C76.6787 385.436 81.7053 360.244 83 350L89 353L95 344L93 341L84 345L111 327.083L122 318L127 319L127 320L125 320L125 321C129.274 320.084 127.687 316.988 126 314L136 312L131 303C137.583 302.638 140.115 299.055 142 293L144 294C166.203 262.571 200.881 261.498 236 259.961C254.209 259.163 270.924 258.972 288 266L290 248C288.02 245.345 288.02 243.655 290 241L290 240C285.128 237.154 286.237 232.017 285.576 227C284.026 215.251 283.499 203.858 282 192L285 195L286 192L284 189C288.089 188.486 287 183.466 287 180L285 180L285 184L284 184L284 181L283 181L284 188C276.359 177.42 278.782 165.168 277.91 153C276.528 133.733 274.329 115.215 272 96C266.103 97.0909 255.615 98.0971 251 94L246 96L248 93C237.528 95.4943 228.948 94.528 227 107L224 107L224 104C219.38 103.372 218.754 99.0798 219 95L168 96L168 94C176.857 93.7168 185.284 92.2808 194 92.0532C205.243 91.7597 216.315 94.2531 220 81C223.366 84.2187 225.677 87.2714 220 89L220 90C267.226 88.3004 314.805 88.5651 362 88.0038C380.721 87.7812 399.409 87.5684 418 85.2863C423.123 84.6574 429.016 86.0387 433.941 84.3472C440.636 82.0482 437.436 71.4417 438.325 66C440.936 50.0109 442.932 33.9817 445.356 18C445.901 14.4124 448.351 3.58417 445.254 1.02777C441.983 -1.67224 433.024 0 429 0L386 0L216 0C216.454 10.5842 214.16 23.6619 216.274 33.8303C217.886 41.5819 223.49 51.7606 216 58L213 48L210.272 36L204 0L0 0z"/>
<path style="fill:#514b44; stroke:none;" d="M204 0L208.724 32L213 48L216 58C221.815 54.7936 219.444 48.5899 219.024 43.0008C218.701 38.698 216.37 35.2073 216.055 30.9854C215.29 20.7217 216.829 10.5104 216 0L204 0M446 0C448.827 20.1987 442.531 44.3094 438.515 64.0008C437.448 69.2307 440.302 79.3211 435.682 82.9907C431.35 86.4319 424.11 84.7379 419 85.0895C404.01 86.1208 389.05 88 374 88C340.685 88 307.226 89.1735 274 89.9854C256.218 90.4199 237.622 88.1368 220 90L220 89C226.431 87.9304 224.136 83.7997 220 81C213.162 98.2046 183.267 92.8441 168 94L168 96L219 95C218.245 99.3453 218.98 103.745 224 104L227 107C230.102 94.8726 237.66 96.0645 248 93L246 96L251 94C254.359 98.6036 266.737 97.2523 272 96C272.779 108.807 273.379 121.592 274.228 134C274.732 141.354 277.798 148.488 277.985 156C278.237 166.121 276.026 180.222 284 188L283 181L284 181L284 184L285 184L285 180L287 180C287 183.242 288.004 188.413 284 189L285 195L282 192C282.955 204.096 283.847 215.17 285.424 227C286.055 231.727 284.742 238.151 290 240L290 241C287.597 243.1 287.597 245.9 290 248L288 266C273.771 257.561 253.027 258.305 237 259.83C206.945 262.691 176.787 259.418 154.385 282.791C150.65 286.688 146.36 288.953 144 294L142 293C139.525 298.433 137.281 302.298 131 303L136 312L126 314C127.166 317.148 128.035 318.987 125 321L125 320L127 320L127 319L122 318C122 321.381 114.945 324.364 112 326C101.269 331.962 91.5896 335.242 84 345L93 341L95 344L89 353L83 350L81.9421 376L81.1566 385.697L88 389C85.8519 402.009 81.2041 426.449 86.5995 438.867C88.2836 442.743 93.0324 444.008 95 448L98 446L97 449C100.08 452.051 99.4518 454.168 98 458L101 459L101 457L104 461L120 453C120.854 456.987 124.489 456 128 456L128 453L137 451L139 458L145 456L150 436L153 437C154.494 432.517 152.468 426.596 154 422C157.895 410.314 164.832 399.292 178 396C181.566 395.108 183.874 396.521 187 396C190.463 395.423 189.472 393.368 192 394L192 392C194.792 392.931 195.425 393.877 196 391L197 391L197 393L198 393L199 389L215.961 389.522L250 388.826L272 386L273 386L295 384L304 376L307 377L324 368C339.029 370.963 345.138 378.675 353.255 391C356.774 396.344 358.415 404.946 365 407C362.105 387.541 360.59 365.126 353.089 347C349.669 338.735 342.08 332.71 339.032 324.91C336.506 318.449 338.714 310.741 337.536 304C336.737 299.427 334.101 289.382 336.132 285.147C338.843 279.497 349.973 281 355 281C365.668 281 376.399 281.821 387 281.821C396.681 281.821 406.373 279.708 416 282L416 280L423 279L406 278L374 275L375 269L376 269L376 273C381.842 268.557 380.968 254.743 380.564 247.999C380.065 239.671 382.382 231.295 382.91 223C383.471 214.187 381.977 206.849 384 198L385.961 172L392 95L435 93L430.104 143L431 184L432 184L432 180L433 180L434 182C439.879 154.962 437.734 125.547 448 99L445 100L445 94L505 92.6196L564 91.9606L606 92C606 89.2982 606.935 84.0531 604.397 82.2184C601.016 79.7751 590.148 81.6796 586 81.9144C570.411 82.7964 554.61 84 539 84C533.49 84 523.319 86.1196 520 81C500.651 90.82 465.951 85.6478 445 83L450 65L448 65L454.298 27.0895L459 0L446 0z"/>
<path style="fill:#5f5956; stroke:none;" d="M459 0L454.262 26.1697L448 65L450 65L445 83C461.97 86.1525 479.779 85.0822 497 84.9992C504.306 84.964 513.904 85.2396 520 81C521.175 86.4836 536.143 84 541 84C562.282 84 584.818 79.0629 606 82L606 51L592 51C593.938 45.5735 593.938 42.4265 592 37L599 40L599 48L600 48C599.994 40.5018 598.3 36.4534 592 32C589.081 36.5038 583.316 35.6097 580 32L584 32L584 21L583 21L582 24L580 22L577 24C573.626 21.7027 567.666 22.9256 565 26L560 21C565.483 20.9994 569.026 21.1265 573 17L567 3L565 8L563 8L561 3L559 3L552 14L550 12L550 11L554 0L533 1L533 4L536 4L528 8L528 7L531 7L531 4L528 4L531 1L508 0L459 0z"/>
<path style="fill:#514b44; stroke:none;" d="M528 4C530.457 5.12543 530.457 5.87463 528 7L528 8L536 4C533.543 2.87457 533.543 2.12537 536 1C532.484 -0.328552 529.954 0.903931 528 4M554 0L550 11L550 12L552 14C556.994 11.5928 557.733 8.07074 559 3L561 3L563 8L565 8L567 3L573 17L560 21L565 26C568.284 23.4865 573.167 22.1375 577 24L582 24L583 21L584 21L584 32L580 32C581.778 36.496 590.9 37.1324 592 32C597.179 37.1975 599.974 40.5371 600 48L599 48L599 40L592 37L592 51L606 51L604 0L554 0z"/>
<path style="fill:#5f5956; stroke:none;" d="M604 0L605 10L606 10L606 0L604 0z"/>
<path style="fill:#514b44; stroke:none;" d="M536 8L537 9L536 8z"/>
<path style="fill:#5f5956; stroke:none;" d="M587 8L587 16L590 16L590 8L587 8z"/>
<path style="fill:#514b44; stroke:none;" d="M440 13L441 14L440 13M464 14L464 18L465 18L464 14M544 14L543 15L544 18L546 18L547 15L544 14z"/>
<path style="fill:#5f5956; stroke:none;" d="M450 16L450 18L452 18L452 16L450 16M580 16L580 20L582 20L582 16L580 16z"/>
<path style="fill:#514b44; stroke:none;" d="M551 19L551 28L552 28L551 19M522 20L524 22L524 20L522 20M490 24L490 26L492 26L492 24L490 24M522 26L522 27L528 25L522 26M482 27L482 29L484 29L482 27M487 27L488 31L489 31L487 27M556 27L555 34L556 34L556 27M527.333 28.6667L527.667 29.3333L527.333 28.6667M560 37L568 37C567.965 27.0453 560.647 27.7753 560 37M340.667 29.3333L341.333 29.6667L340.667 29.3333M519 29L518 32L520 35L523 32L519 29M485 31L486 32L485 31z"/>
<path style="fill:#5f5956; stroke:none;" d="M599 32L600 33L599 32M600 38L604 35L600 38z"/>
<path style="fill:#514b44; stroke:none;" d="M517 38L520 36L517 38M576 36L576 42C580.317 40.7858 579.634 37.7549 576 36M484 39L482 40L482 41L484 39M512 39L513 40L512 39M541.333 40.6667L541.667 41.3333L541.333 40.6667M570 40L570 48L574 48L574 40L570 40M581 43L583 48L576 48L579 56L575 56L575 64L576 64L576 61L581 60L581 59L576 59L584 48L591 44L581 43M552 43L552 47L560 47L560 43L552 43M487 47L488 48L487 47z"/>
<path style="fill:#5f5956; stroke:none;" d="M440 63L441 64L440 63z"/>
<path style="fill:#514b44; stroke:none;" d="M487 63L486 66L487 63M214 64L214 66L216 66L216 64L214 64z"/>
<path style="fill:#5f5956; stroke:none;" d="M256 93L256 95L258 95L256 93z"/>
<path style="fill:#514b44; stroke:none;" d="M155 95L155 96L159 96L155 95M104 99L111 99C108.872 95.2447 106.187 95.3052 104 99M115 98L120 98C118.188 95.4952 116.744 95.4464 115 98M124 96L124 97L136 96L124 96M140 95L140 96L154 96L140 95M162 95L163 96L162 95M241.667 95.3333L242.333 95.6667L241.667 95.3333M604.667 95.3333L605.333 95.6667L604.667 95.3333M0 99L0 102L88 99L60 97.821L0 99z"/>
<path style="fill:#5f5956; stroke:none;" d="M222 98L222 100L224 100L224 98L222 98M316 104C316 134.487 317.635 164.612 317.996 195C318.194 211.665 316.142 234.359 322 250L323 250C326.298 240.872 323.585 227.637 323.028 218C322.026 200.691 325.382 180.723 321.472 164C320.245 158.752 323.888 142.262 318 141L318 140L318.224 130.985L318 104L316 104z"/>
<path style="fill:#514b44; stroke:none;" d="M227 109L229 112L227 109M511 109L512 110L511 109M8 110L8 113L9 113L8 110M576 112L577 113L576 112M11 116L11 117L16 117C15.2611 113.622 13.6592 114.551 11 116M16 118L17 119L16 118M221 119L221 121L224 121L224 119L221 119z"/>
<path style="fill:#5f5956; stroke:none;" d="M282.333 125.667L282.667 126.333L282.333 125.667z"/>
<path style="fill:#514b44; stroke:none;" d="M584 127L583 130L584 130L584 127z"/>
<path style="fill:#5f5956; stroke:none;" d="M379 128L379 132L380 132L379 128z"/>
<path style="fill:#514b44; stroke:none;" d="M600 132L600 135L604 134L600 132M580.667 135.333L581.333 135.667L580.667 135.333z"/>
<path style="fill:#857368; stroke:none;" d="M11 144L13 151L14 151L14 144L11 144z"/>
<path style="fill:#514b44; stroke:none;" d="M224 149L224 150L228 150L224 149z"/>
<path style="fill:#857368; stroke:none;" d="M16 152L16 168L19 168L18 152L16 152z"/>
<path style="fill:#514b44; stroke:none;" d="M562.333 155.667L562.667 156.333L562.333 155.667z"/>
<path style="fill:#857368; stroke:none;" d="M7 156L6 160L7 156z"/>
<path style="fill:#514b44; stroke:none;" d="M568.333 160.667L568.667 161.333L568.333 160.667z"/>
<path style="fill:#857368; stroke:none;" d="M76 164L77 165L76 164M83.6667 164.333L84.3333 164.667L83.6667 164.333z"/>
<path style="fill:#5f5956; stroke:none;" d="M365 164C362.799 180.345 361.582 195.526 361.985 212C362.228 221.9 361.013 230.904 371 236L373 192L372 192L371 221L369 219L368 219L366 221C362.895 212.372 361.852 204.135 363 195L365 197L366 197L368 197L369 197L371 185L372 190L373 190L372 164L371 164L372 170L368 171L365 164z"/>
<path style="fill:#857368; stroke:none;" d="M0 168L0 280C20.0579 280.414 39.9073 280 60 280C66.4062 280 77.4661 282.409 81 276C73.486 271.871 72.4542 259.928 68.8218 253.089C58.7431 234.115 50.6605 214.194 41 195L39 197L39 192L36 187L32 188L35 191C32.7604 196.522 29.5931 196.98 24 197L24 192L19 192L19 176L8 176L8 168L0 168M158.667 175.333L159.333 175.667L158.667 175.333M26 176L26 184L28 184L28 176L26 176z"/>
<path style="fill:#514b44; stroke:none;" d="M567 184L568 185L567 184z"/>
<path style="fill:#857368; stroke:none;" d="M72 185L72 188L74 187L74 186L72 185M370 185L369 197L368 197L367 195L363 195C361.433 203.447 362.132 213.278 366 221L368 219L369 219L371 221C371.724 211.822 376.05 192.427 370 185M75 188L78 186L75 188M319 188L319 204L320 204L319 188M54 189C55.7908 196.621 53.9493 207.477 62 211L63 208L64 208L63 219L64 219L66 216C66.0427 228.454 71.1742 237.924 75.2731 249.039C77.0259 253.792 74.6375 260.746 81 262C81.4309 267.46 81.4914 273.934 86.0586 277.682C90.5477 281.367 97.6005 279.882 103 280.015C116.118 280.336 132.03 283.28 144.871 279.682C148.693 278.611 152.097 274.646 156 273L155 275L158 272L152 272L152 271L161 272L166 264L184 262L184 259L192 262L195 240L184 235C177.178 240.168 160.435 237 152 237L152 240L141 240L144 229L128 229L128 224L120 224L120 232L117 232L117 224L112 224L112 232L111 232C110.978 225.492 108.066 219.711 115 216C112.544 211.771 108.411 212.967 104 213L101 221L99 221L94 216L91 220L91 216L88 216L88 197L64 195L64 189L54 189M74.6667 191.333L75.3333 191.667L74.6667 191.333M88 192L88 195L90 195L90 192L88 192z"/>
<path style="fill:#5f5956; stroke:none;" d="M287 197L289 225L290 225C291.267 217.511 290.309 203.886 287 197M40.3333 198.667L40.6667 199.333L40.3333 198.667z"/>
<path style="fill:#857368; stroke:none;" d="M144 199L145 200L144 199z"/>
<path style="fill:#5f5956; stroke:none;" d="M24 200L24 209L25 209L29 201L24 200M80 200L80 208L81 208L80 200M85 200L85 208L87 208L87 200L85 200z"/>
<path style="fill:#857368; stroke:none;" d="M91 200L91 208L95 208L95 200L91 200z"/>
<path style="fill:#5f5956; stroke:none;" d="M40 202L40 208L42 208L40 202z"/>
<path style="fill:#7e98a9; stroke:none;" d="M370.333 203.667L370.667 204.333L370.333 203.667z"/>
<path style="fill:#5f5956; stroke:none;" d="M27 213L30 213L29 211L27 213M72 216L71 225L75 224L75 216L72 216M78 216L78 224L81 224L81 216L78 216M87 216C87 219.51 86.0129 223.146 90 224L87 216z"/>
<path style="fill:#857368; stroke:none;" d="M232.333 216.667L232.667 217.333L232.333 216.667z"/>
<path style="fill:#514b44; stroke:none;" d="M605 222L598.946 242.985L588 273L520 275.911L491 277L491 279C521.354 286.227 559.444 267.721 587 283C590.559 277.822 594.107 277.598 600 279L606 276L606 271L595 270L597 267L592 267L592 265C600.338 264.538 602.34 254.333 602 247C607.944 243.249 607.512 227.986 605 222z"/>
<path style="fill:#5f5956; stroke:none;" d="M27.6667 223.333L28.3333 223.667L27.6667 223.333z"/>
<path style="fill:#857368; stroke:none;" d="M178 224L178 232L180 232L180 224L178 224z"/>
<path style="fill:#5f5956; stroke:none;" d="M376 224L376 228L377 228L376 224z"/>
<path style="fill:#857368; stroke:none;" d="M168 229L168 232L176 232L176 229L168 229M370 231L371 232L370 231z"/>
<path style="fill:#5f5956; stroke:none;" d="M289 232L290 236L291 236L289 232M376.333 232.667L376.667 233.333L376.333 232.667M376 236L376 239L377 239L376 236z"/>
<path style="fill:#514b44; stroke:none;" d="M426.333 238.667L426.667 239.333L426.333 238.667z"/>
<path style="fill:#5f5956; stroke:none;" d="M128 240L132 245L133 245L128 240M376.333 240.667L376.667 241.333L376.333 240.667M605 244L602 247C601.902 254.15 600.071 264.091 592 265L592 267L597 267L595 270L606 271L605 244M142 246L142 248L144 248L144 246L142 246M128.667 247.333L129.333 247.667L128.667 247.333M291 251L291 254L292 254L291 251z"/>
<path style="fill:#857368; stroke:none;" d="M224 254L224 259L227 256L235 256L224 254M213 255L214 256L213 255M215 255L216 256L215 255z"/>
<path style="fill:#5f5956; stroke:none;" d="M375 255L376 256L375 255M184.667 256.333L185.333 256.667L184.667 256.333z"/>
<path style="fill:#857368; stroke:none;" d="M205 256L205 257L212 257L205 256z"/>
<path style="fill:#5f5956; stroke:none;" d="M291 256L292 260L293 260L291 256M191.333 258.667L191.667 259.333L191.333 258.667z"/>
<path style="fill:#857368; stroke:none;" d="M208 259L208 260L219 259L208 259M410 273L408 276L410 273M384 274L384 275L392 275L384 274z"/>
<path style="fill:#514b44; stroke:none;" d="M455 278L456 279L455 278M464 278L464 280L472 280L472 278L464 278M429 279L429 280L437 280L429 279M16 282L16 283L32 283L16 282M40 282L41 283L40 282z"/>
<path style="fill:#857368; stroke:none;" d="M0 283L0 368C0 379.697 -2.78719 395.479 0.474537 406.715C5.01138 422.342 22.7226 435.188 31 449L32 449C31.9526 437.713 25.7031 434.933 20.1944 426C18.1112 422.622 18.0175 416.861 14 416L16 405L24 405L24 411L64 413L64 408L66 408L67 416L74 416L73 412C84.436 417.345 78.7131 433.685 81.4907 444C83.9929 453.292 89.8248 454.571 95.2307 461.429C98.4946 465.57 99.8013 470.723 103 475L104 475C100.343 462.178 90.4771 455.476 85.5185 444C80.7155 432.884 85.2606 421.371 83.8148 410.001C83.2022 405.183 79.399 402.454 78.314 397.985C76.8314 391.878 78 384.268 78 378C78 358.403 79.0591 335.461 102 329L102 328L99 325L104 325L113 317C114.047 309.504 124.861 301.452 132 300L132 299L128 299L139 286C128.099 282.777 114.228 283.35 103 284.576C100.067 284.896 96.0193 283.704 93.3179 284.832C90.5654 285.98 91.6 290.835 88.7222 291.369C85.5608 291.955 83.7615 286.741 81.5301 285.318C78.8327 283.598 75.0478 284.005 72 284C48.8118 283.963 22.718 288.409 0 283M425 284L425 286L426 287L440 287L440 286L432 286L432 283L425 284M83 284L84 285L83 284M346 288L343 286L339 290L344 324L342 324C345.011 334.016 354.356 343.039 358.737 353C361.366 358.978 359.707 366.596 360.754 373C363.102 387.367 370.683 405.428 368 420L356 406C358.347 396.371 348.777 388.199 340 387L336 389L335 392L320 387C308.183 396.73 295.926 395.014 282 396.174C254.498 398.464 226.744 396.338 200 403C199.492 406.89 195.246 405.97 192 406C183.819 406.076 176.174 408.995 168 408C161.516 421.671 160 432.725 160 448L157 448L144 519L143 519L136 514L139 510C131.978 508.354 129.785 516.296 131 522L130 523C114.347 517.975 113.39 489.221 105 477L104 477C109.384 495.878 117.084 519.321 127.922 535.83C138.991 552.691 156.555 566.351 169.269 582.09C180.118 595.521 196.886 618.551 216 619L216 617C207.888 616.119 200.045 609.289 194.039 604.079C177.723 589.924 165.662 570.996 152.586 554C146.799 546.479 139.065 541.133 134 533C145.199 536.032 153.384 555.356 164 554L165 550L165 549C159.197 541.186 161.978 536.616 161.867 528C161.766 520.103 159.969 511.849 160.383 504C160.689 498.183 162.983 492.943 163 487L166 487L170 501C176.415 501 184.07 502.905 187 496L189 496L191 501L192 501L195 492L195 496L201 496L201 497C187.684 501.042 207.559 517.316 216 515L205 528C208.877 530.134 206.818 534.067 209.806 536.843C213.49 540.266 228.217 540.914 229 535L250 536L250 539L230 541L230 542L234 543L232 546L264.91 551.413L280 547C285.626 537.43 308.769 535.56 307 523L312 528L309 528L309 529L321 538C324.791 549.853 323.31 556.868 336 561L336 571C323.615 576.835 304.954 580.618 301 596L317 600L314 591L314 590C327.813 590.947 329.464 605.857 339 612C324.075 615.553 303.347 612.294 288 611.086C274.111 609.992 259.967 612.005 246 612C238.117 611.997 220.168 606.709 214 611L219 611L223 616C228.576 615.08 233.463 616.529 239 616.911C249.62 617.642 263.238 614.363 272 622C277.8 620.374 281.491 620.442 287 623L284 623C285.424 626.224 286.436 627.362 290 627L305 639L300 641L300 642L304 643C307.477 637.636 319.181 640 325 640L325 644C328.757 645.672 331.014 647.765 331 652L337 656L337 669C343.477 667.105 340.566 656.186 340.13 651C338.99 637.455 331.964 618.239 349 612C339.254 593.666 337.279 579.917 343.252 560C345.696 551.848 348.424 541.944 358.715 540.916C375.766 539.213 392.345 554.949 410 555C409.746 550.296 405.807 544.658 407.608 540.109C410.558 532.657 430.466 536 437 536L437 544L440 544L438 562L440 560L447 563L438 565L433 560L431.604 573L437 586L440 589L441 589L445 584L443 579L454 590C461.232 590.794 467.818 600.613 472 606L454 607L456 613C459.987 613.254 463.711 614.587 465 610L472 610L472 616L473 616L474 608C485.981 614.58 508.144 627.348 514 640L504 641L508 670L512 669L513 677C507.53 674.775 503.449 673.19 499 678L520 680C521.285 683.923 524.027 684.887 528 685L528 690C529.91 689.421 531.334 689.015 529 688L529 687L537 688L541 686L533 696L533 697L536 702L533 702L536 709L535 704L544 721C549.047 722.818 551.666 726.928 553 732L550 730L559 741C550.879 746.857 559.03 760.552 560 768L561 768L561 763L569 763C569.317 769.827 572.647 773.152 577 778L575 777L575 778L582 800L584 805L606 805L606 753C606 746.292 608.047 737.977 600 736L601.931 715.039L599 698L605 709L606 709L603 693L601 694L605 692C603.968 694.846 603.485 696.165 606 698C605.813 691.534 603.142 682.308 595 684L591 680L592 677L589 678L583 673C576.937 660.592 552.127 657.92 552 642C544.972 634.992 538.211 619.921 538 610L542 609L542 608L536 610L536 605L560 603C562.46 611.705 574.312 605.1 576 616L584 616L584 626L592 626L592 632L594 632L594 628L597 628L597 624L592 622L600 622L600 628L606 628L605 624L603 625L605.945 608.999L606 570L606 427L584 426L586 416L584 416L584 421L579 416L582.028 401.344L595 396L496 395L496 393C505.365 392.261 514.602 391.171 524 390.92C527.819 390.818 533.231 391.96 536.62 389.821C542.009 386.419 543.98 373.871 544 368L548 368L547 364L544 365L543 360C548.03 355.431 539.52 353.291 536 353L539 344L528 342L528 336L522 336C522 330.307 523.942 321.336 520 317L520 325C511.054 317.877 498.151 317.574 498 304L464 304L464 301L456 301L456 304L432 304L432 293C419.717 293.042 419.768 302.905 418.13 313C415.715 327.879 410.531 342.424 407 357L408.867 336L410 296L408 296L408 301L403 296L408 288L408 287L400 287L400 291L382 292L380 288L381 286C373.299 283.703 350.397 280.025 346 288M398 287C402.2 285.391 404.914 284.731 409 287L411 284C406.455 284 400.879 282.925 398 287M87 287L88 288L87 287M423 287L424 288L423 287M448 293L448 296L456 296L456 293L448 293z"/>
<path style="fill:#514b44; stroke:none;" d="M578 299L581 296L578 299z"/>
<path style="fill:#5f5956; stroke:none;" d="M343.333 299.667L343.667 300.333L343.333 299.667z"/>
<path style="fill:#514b44; stroke:none;" d="M576 302L576 306L577 306L578 302L576 302z"/>
<path style="fill:#5f5956; stroke:none;" d="M406 303L407 304L406 303M408 303L409 304L408 303M343.333 304.667L343.667 305.333L343.333 304.667M472 320L472 322L475 322L475 320L472 320M511 328L511 336L512 336L511 328M488 334L488 336L496 336L496 334L488 334M96 344L99 341L103 341C99.9083 336.777 96.675 339.868 96 344M528 352L529 353L528 352M531 352L531 360L528 359L528 363L537 365L543 357L536 355L536 360L535 360L535 352L531 352z"/>
<path style="fill:#857368; stroke:none;" d="M548 352L548 356L549 356L550 352L548 352z"/>
<path style="fill:#5f5956; stroke:none;" d="M407 360L407 368L408 368L407 360z"/>
<path style="fill:#857368; stroke:none;" d="M557 365L557 369C549.854 371.563 547.427 382.321 545 389L595 389L595 388C582.278 382.608 569.798 387.451 560 376C563.987 375.146 563 371.51 563 368L557 365z"/>
<path style="fill:#5f5956; stroke:none;" d="M331 367L332 368L331 367z"/>
<path style="fill:#514b44; stroke:none;" d="M328 372L328 374L330 372L328 372z"/>
<path style="fill:#5f5956; stroke:none;" d="M552 373L552 376L553 376L552 373M557 373L557 374L560 374L557 373z"/>
<path style="fill:#514b44; stroke:none;" d="M296 383L297 384L296 383z"/>
<path style="fill:#857368; stroke:none;" d="M592.667 384.333L593.333 384.667L592.667 384.333z"/>
<path style="fill:#514b44; stroke:none;" d="M256 387L256 388L259 389L256 387z"/>
<path style="fill:#5f5956; stroke:none;" d="M197 389L198 390L197 389z"/>
<path style="fill:#514b44; stroke:none;" d="M592 391L592 393L594 393L592 391z"/>
<path style="fill:#857368; stroke:none;" d="M599 391L600 392L599 391z"/>
<path style="fill:#514b44; stroke:none;" d="M198 393L198 394L202 393L198 393M535 392L536 393L535 392M537 392L537 393L542 393L537 392M560 392L560 393L576 393L560 392M580 392L580 393L584 393L580 392M194 393L195 394L194 393M196 393L197 394L196 393z"/>
<path style="fill:#5f5956; stroke:none;" d="M368 395L368 396L427 396L410 394L368 395M525 430L528 424C534.804 421.691 534 413.981 534 408C538.067 407.303 544.345 397.636 537.911 397.636C534.289 397.636 534.014 402.487 532.884 404.91C529.496 412.178 525.24 421.894 525 430z"/>
<path style="fill:#7e98a9; stroke:none;" d="M7 400L7 404L8 404L7 400z"/>
<path style="fill:#5f5956; stroke:none;" d="M573 400L576 412L576 400L573 400z"/>
<path style="fill:#7e98a9; stroke:none;" d="M16 405L14 416C17.7169 418.382 17.9144 423.241 20.2577 426.91C25.56 435.214 31.5559 438.529 32 449L31 449L11.8742 423.755L0 408L0 468C4.97615 468 13.4091 466.106 15 472L31 472L31 474L9 472L0 473L0 476L28 477C29.1039 485.307 35.6913 492.494 40.5633 499C48.9531 510.204 58.4642 521.305 66 533L35 533.039L17.0934 530.927L0 513C1.0162 519.559 12.7411 533.367 19.2855 535.35C27.2823 537.774 38.6883 535 47 535C67.1338 535 87.0962 536.165 107 536C103.031 530.786 95.2854 534.691 90.5147 529.891C83.7686 523.104 76.4276 512.548 72.7106 503.714C70.468 498.384 70.157 490.868 64 489L64 488L72 488L72 487L64 487L64 484L80 485L80 482L64 482L64 480L98 480C99.0748 483.674 101.547 483.882 105 483L104 493L109 495L106 496L106 497C113.114 499.975 119.316 520.823 122.639 528C124.293 531.572 125.032 538.15 129 539L125 546L128 549C123.546 547.556 119.787 544.705 115 544.188C105.083 543.118 104.055 549.125 105.54 557C107.557 567.695 114.092 577.662 121 586C122.627 576.633 115.3 566.583 117.603 557.019C119.193 550.418 125.899 549.838 128 556C141.171 555.68 130.572 565.918 129 573C123.014 573.752 127.531 584.372 130.083 587.394C135.553 593.867 141.54 592.501 149 592C150.919 597.617 160.725 600.853 163 594L153 588C145.353 590.594 143.654 588.284 137 585C142.188 580.401 147.757 578.233 152 585L153 585L151 571L154 568C165.579 578.471 174.18 591.92 185.326 602.924C192.84 610.342 206.878 615.487 212.486 624.185C215.672 629.127 215.435 637.326 216.129 643C216.854 648.93 225.536 662.108 220.281 667.893C217.436 671.024 208.831 661.565 207.093 659.576C199.256 650.601 184.05 630.96 183 619L175 613L173 621C181.786 625.807 188.866 641.737 194.644 650C201.879 660.347 211.75 668.35 219.738 678.004C223.747 682.849 225.518 689.084 229.39 693.999C241.944 709.931 265.449 718.156 283 727.109C290.9 731.138 299.082 735.13 308 736.345C312.936 737.017 320.243 734.536 324.556 738.012C326.673 739.719 325.471 742.793 325 745L336 744L344 752L336 752L336 754L346 752L342.283 773.816L349 784L344 785L346 787L346 788L346 789L339 793L361 785C375.427 770.356 398.152 761.964 392.974 737C391.863 731.647 389.08 726.996 387 722C397.091 719.598 406.337 721.082 416 723L413 727L427 730L427 729L417 720L421 720L415 716L413 720L412 716C402.815 716.801 393.394 720.992 384 718.972C374.84 717.003 357.862 708.965 354.093 700C351.961 694.927 354.263 689.381 352.073 684C344.744 665.998 339.166 650.009 339 630L338 630C338 639.013 345.876 663.57 337 669L337 656L331 652C331.788 647.578 329.15 645.144 325 644L325 640C320.12 640 305.176 637.514 304 643L300 642L300 641L305 639L290 627L284 623L287 623C282.024 619.716 277.433 619.966 272 622C265.53 613.488 248.212 617.722 239 616.83C233.439 616.292 228.569 614.72 223 616L219 611L214 611L242 611.996L309 612L339 612C330.557 604.459 327.687 590.415 314 590L314 591L317 600L301 596C307.656 579.935 323.421 579.539 336 571L336 561L326.276 556.478L321 538L309 528L312 528L312 527L307 523C306.116 537.058 284.269 534.925 280 547L254 550.911L232 546L234 543L230 542L230 541L250 539L250 536L229 535C229 541.439 212.048 539.886 209 535.667C206.684 532.46 209.854 528.571 205 528C208.274 521.507 215.718 523.507 216 515C208.462 515.64 188.441 503.335 201 497L201 496L195 496L195 492L192 501L191 501L189 496L187 496C183.031 502.369 176.743 501 170 501L166 487L163 487C162.947 492.912 160.522 498.173 160.211 504C159.792 511.836 161.709 520.107 161.726 528C161.744 535.989 158.078 542.435 165 549L165 550L164 554C152.36 553.811 146.669 535.503 134 533C137.802 541.992 146.738 547.399 152.586 555C165.397 571.653 177.302 590.02 193.09 604.079C199.296 609.607 207.444 616.537 216 617L216 619C196.252 617.975 180.264 593.636 168.525 580.3C155.664 565.688 138.347 551.28 127.922 534.911C113.953 512.976 110.124 485.47 97.1088 463.17C94.1614 458.12 88.9394 456.956 85.588 452.772C77.3663 442.508 86.1757 415.764 73 412L74 416L67 416L66 408L64 408L64 413L24 411L24 405L16 405z"/>
<path style="fill:#857368; stroke:none;" d="M2 415L3 416L2 415M590 416L590 424L598 424L590 416z"/>
<path style="fill:#5f5956; stroke:none;" d="M580 424L581 425L580 424M579 431L580 432L579 431M574 432L575 437L576 437L576 432L574 432M328 503C334.528 502.969 340.896 506.121 344 512L368 509L370 504C357.326 494.216 377.822 492.879 380.925 488.671C384.426 483.925 382.969 477.248 382 472C377.108 469.664 373.509 465.577 375 460L379 461C381.474 448.279 374.208 432.585 359.174 437.84C348.418 441.598 335.896 455.574 329.046 464.221C324.15 470.401 322.731 485.386 324.936 492.95C326.194 497.264 329.43 498.097 328 503z"/>
<path style="fill:#514b44; stroke:none;" d="M368 440L368 441L370 442C355.487 442.946 334.689 454.617 331 470C342.11 467.371 360.539 460.335 369.71 453.297C375.7 448.7 376.787 440.665 368 440z"/>
<path style="fill:#5f5956; stroke:none;" d="M145 447L146 448L145 447z"/>
<path style="fill:#857368; stroke:none;" d="M33 449L42 464L33 449z"/>
<path style="fill:#b7b6b8; stroke:none;" d="M44.3333 456.667L44.6667 457.333L44.3333 456.667M32 457L32 463L33 463L32 457M35 462L38 464L35 462z"/>
<path style="fill:#514b44; stroke:none;" d="M103 462L103 468L104 468L104 465L114 466L112 462L103 462z"/>
<path style="fill:#5f5956; stroke:none;" d="M106.667 464.333L107.333 464.667L106.667 464.333z"/>
<path style="fill:#b7b6b8; stroke:none;" d="M0 468L0 473L9 472L31 474L31 472L15 472L16 469L0 468M40 468L40 472L44 472L44 471L40 468z"/>
<path style="fill:#7e98a9; stroke:none;" d="M208 469L211 472L208 469z"/>
<path style="fill:#857368; stroke:none;" d="M348 471L348 472L352 472L348 471z"/>
<path style="fill:#b7b6b8; stroke:none;" d="M53 472C58.1851 477.295 76.375 474.765 84 474.936C87.6449 475.018 90.907 475.128 93 472L53 472z"/>
<path style="fill:#7e98a9; stroke:none;" d="M220 472L221 473L220 472M239 472L240 473L239 472M241 472L242 473L241 472M424.667 472.333L425.333 472.667L424.667 472.333z"/>
<path style="fill:#5f5956; stroke:none;" d="M506 478L507 478L507 475L540 475C544.687 475 550.011 476.145 553 472C541.995 473.759 530.158 473.053 519 472.999C513.082 472.971 507.508 470.772 506 478z"/>
<path style="fill:#514b44; stroke:none;" d="M344 480L338 489L335 488C340.794 497.269 350.809 494.076 360 494C356.513 488.462 356.397 485.506 358 479C364.863 480.695 374.178 486.445 379 479L358 474.498L344 480z"/>
<path style="fill:#857368; stroke:none;" d="M0 476C0 486.41 -2.99675 502.224 0.603395 512C1.76311 515.149 4.53267 517.408 6.54475 520C18.3904 535.259 27.0676 532.999 45 533C52.0535 533 59.0808 534.647 66 533C57.0742 513.263 33.0948 498.742 28 477L0 476M49 476L49 477L55 478L49 476z"/>
<path style="fill:#7e98a9; stroke:none;" d="M216 476C215.1 479.015 214.184 479.938 211 480L210 488L216 480L220 476L216 476z"/>
<path style="fill:#857368; stroke:none;" d="M56.3333 477.667L56.6667 478.333L56.3333 477.667z"/>
<path style="fill:#5f5956; stroke:none;" d="M16 479C18.7303 481.275 20.8428 481.761 24 480L16 479z"/>
<path style="fill:#b7b6b8; stroke:none;" d="M30 479L30 480L56.6296 518L70.1698 532.643L87 533L60.1296 494.004L48.6867 479.603L30 479M58 479L59 483L61 483L62 482L62 480L58 479M64 480L64 482L80 482L80 485L64 484L64 487L72 487L72 488L64 488L64 489C69.5776 491.811 70.2357 498.256 72.3657 503.714C74.7908 509.927 79.9396 517.892 84.0131 523.196C86.309 526.186 89.5189 530.969 93.0934 532.397C98.0109 534.36 102.62 532.191 107 536L47 535L19.2847 534.893L0 517L0 532L13 533L13 534L0 536L0 564L2 575L2 576L0 591L0 633L0 805L576 805L561.412 776.741L555 768L555 738L540.667 724.167L534 720.5L536 720L536 719L516.999 707.078L499 704L507 702C501.251 701.686 498.602 699.205 495 695C490.705 700.262 486.377 700.205 480 701L483.539 693.194L480 680L478 664L472 667C471.146 663.013 467.51 664 464 664L464 658L468 662C472.66 661.475 479.645 654.213 474.625 649.6C469.797 645.162 461.426 649.243 456 644L437.985 638.443L425.285 636.275L402 630C404.473 625.056 399.198 623.317 395 624L416 616L416 620L419 619L417 612C413.302 611.534 412.002 609.573 413 606C409.08 606 406.736 599.48 408.5 596C410.649 591.762 416.028 588.986 420 587L420 586C402.956 583.893 394.316 592.59 380 599.73C374.159 602.644 365.602 605.32 362 611L358 610L358 611L360 614L356 615L356 616C351.342 616.168 344.998 614.966 341.303 618.434C335.954 623.454 338.553 633.766 339.884 640C341.703 648.518 340.818 657.645 343.093 666C344.973 672.899 349.444 678.474 352.072 685C354.487 690.997 351.641 697.372 355.148 702.985C358.506 708.36 363.561 709.923 369 712.347C373.977 714.566 378.562 718.228 384 719.277C393.198 721.051 403.026 717.319 412 716L413 720L415 716L421 720L417 720C418.774 725.2 421.87 727.391 427 729L427 730L424 731L409 731L416 723C407.097 720.139 396.323 719.244 387 722C389.595 731.007 395.102 739.071 393.698 749C391.149 767.018 369.519 772.3 361 785L339 793L346 789L346 788L346 787L344 785L349 784L342.333 772.921L346 752L336 754L336 752L344 752L336 744L325 745C325.718 742.989 327.378 739.768 325.346 737.998C321.184 734.372 312.935 736.746 308 736.103C299.451 734.989 291.556 730.963 284 727.109C267.021 718.448 248.249 710.924 234.004 697.895C227.724 692.151 225.548 684.568 220.529 678.004C215.92 671.975 209.686 667.197 204.755 661.424C197.656 653.113 190.205 644.119 184.32 634.961C181.166 630.053 178.898 622.942 173 621L175 613L183 619C183.229 631.001 199.248 651.431 207.093 660.35C209.099 662.63 216.75 671.254 220.227 668.183C226.021 663.065 216.809 647.558 216.129 642C215.45 636.454 215.738 628.086 212.486 623.329C205.476 613.071 189.168 606.322 180.294 596.85C171.792 587.773 164.479 574.727 154 568L151 571L153 585L152 585C148.89 577.579 141.221 579.671 137 585C142.97 589.36 145.844 591.525 153 588C155.424 592.247 158.262 593.482 163 594C159.575 600.206 151.976 597.244 149 592C140.993 592.135 135.907 593.492 130.028 586.611C127.663 583.844 123.246 573.843 129 573C131.168 566.164 141.922 554.572 128 556C126.501 549 118.456 550.307 117.318 557.019C115.695 566.589 121.312 576.47 121 586C115.428 576.454 107.628 568.139 105.715 557C104.611 550.568 104.382 544.426 113 544.201C118.526 544.057 122.809 547.966 128 549L125 546L129 539C121.782 534.375 116.859 515.049 113.07 507C111.231 503.094 110.321 498.503 106 497L106 496L109 495L104 493L105 483L98 480L64 480z"/>
<path style="fill:#7e98a9; stroke:none;" d="M396 480C396.257 484.469 393.943 494.916 399 496L399 499L400 496L405 496L403 504L408 532L432 531L432 520L435 520C434.999 510.069 430.118 502.722 420 510C417.942 504.175 414.143 497.956 408 496L408 486L398 483L420 480L396 480M424 479L425 480L424 479M13 480L32.9498 506.845L47 522L31.4198 500.576L13 480z"/>
<path style="fill:#5f5956; stroke:none;" d="M221 494L215 498L216 498C219.925 496.315 223.781 499.171 228 498.478C237.539 496.909 246.93 490.766 257 490.764C265.926 490.762 279.599 492.877 282 482C269.504 476.727 247.778 478.833 235.004 482.22C229.141 483.774 219.907 486.576 221 494z"/>
<path style="fill:#857368; stroke:none;" d="M359.792 482.072C356.491 484.554 359.398 491.981 363.577 488.378C366.996 485.43 363.592 479.215 359.792 482.072z"/>
<path style="fill:#b7b6b8; stroke:none;" d="M63.3333 482.667L63.6667 483.333L63.3333 482.667z"/>
<path style="fill:#514b44; stroke:none;" d="M248 485L248 487L272 485L272 483L248 485z"/>
<path style="fill:#5f5956; stroke:none;" d="M20 483L29 492C27.1039 487.534 24.6348 484.609 20 483z"/>
<path style="fill:#514b44; stroke:none;" d="M368.667 484.333L369.333 484.667L368.667 484.333M244 486L245 487L244 486M246 486L247 487L246 486z"/>
<path style="fill:#5f5956; stroke:none;" d="M344 486L344 487L347 487L344 486z"/>
<path style="fill:#857368; stroke:none;" d="M344 489L349 489L344 489z"/>
<path style="fill:#5f5956; stroke:none;" d="M348 487L349 488L348 487z"/>
<path style="fill:#7e98a9; stroke:none;" d="M200 488L201 489L200 488M346 488L347 489L346 488z"/>
<path style="fill:#5f5956; stroke:none;" d="M349 488L350 489L349 488z"/>
<path style="fill:#857368; stroke:none;" d="M399.333 488.667L399.667 489.333L399.333 488.667z"/>
<path style="fill:#514b44; stroke:none;" d="M244 490L244 491L248 489L244 490z"/>
<path style="fill:#5f5956; stroke:none;" d="M347.667 489.333L348.333 489.667L347.667 489.333z"/>
<path style="fill:#514b44; stroke:none;" d="M366.667 489.333L367.333 489.667L366.667 489.333z"/>
<path style="fill:#5f5956; stroke:none;" d="M14 490L19 497L18 491L14 490z"/>
<path style="fill:#7e98a9; stroke:none;" d="M200 494L205 493L200 494z"/>
<path style="fill:#857368; stroke:none;" d="M334 495L341 497C339.102 493.737 337.456 493.785 334 495z"/>
<path style="fill:#514b44; stroke:none;" d="M361 493L362 494L361 493z"/>
<path style="fill:#5f5956; stroke:none;" d="M30 494L30 496L32 496L30 494M32 497L35 500L32 497z"/>
<path style="fill:#7e98a9; stroke:none;" d="M4 499L5 500L4 499z"/>
<path style="fill:#857368; stroke:none;" d="M360 499L360 502L362 502L362 499L360 499z"/>
<path style="fill:#5f5956; stroke:none;" d="M24.3333 501.667L24.6667 502.333L24.3333 501.667z"/>
<path style="fill:#7e98a9; stroke:none;" d="M157 502L158 509L159 509L159 502L157 502M430 502L430 504L432 504L432 502L430 502z"/>
<path style="fill:#5f5956; stroke:none;" d="M37 503L38 504L37 503z"/>
<path style="fill:#7e98a9; stroke:none;" d="M209 504L210 505L209 504z"/>
<path style="fill:#5f5956; stroke:none;" d="M328 504L328 505L331 505L328 504z"/>
<path style="fill:#857368; stroke:none;" d="M406 504L408 507L408 504L406 504z"/>
<path style="fill:#5f5956; stroke:none;" d="M39 505L49 519L41 505L39 505z"/>
<path style="fill:#7e98a9; stroke:none;" d="M218 507L219 510L213 511L213 512L221 515L225 514L228 508L218 507z"/>
<path style="fill:#5f5956; stroke:none;" d="M251 507L251 508L256 511C245.09 511.263 224.958 519.902 223 532L233 531L233 530L229 529C234.869 523.273 259.119 537.929 264 524C254.401 527.824 255.942 523.299 253 516C259.689 515.309 266.874 517.153 265 525L279 522C272.842 508.947 265.951 504.224 251 507z"/>
<path style="fill:#7e98a9; stroke:none;" d="M11 507C11.8201 512.443 13.5227 515.535 19 517C18.6023 511.641 15.9056 508.945 11 507z"/>
<path style="fill:#5f5956; stroke:none;" d="M240 511L245 510L240 511z"/>
<path style="fill:#7e98a9; stroke:none;" d="M207.333 510.667L207.667 511.333L207.333 510.667M211 510L212 511L211 510z"/>
<path style="fill:#5f5956; stroke:none;" d="M32 511L33 512L32 511z"/>
<path style="fill:#7e98a9; stroke:none;" d="M157 512L158 515L159 515L160 512L157 512z"/>
<path style="fill:#514b44; stroke:none;" d="M257.333 513.667L257.667 514.333L257.333 513.667z"/>
<path style="fill:#7e98a9; stroke:none;" d="M218 514L217 517L218 514z"/>
<path style="fill:#5f5956; stroke:none;" d="M31 515L26 528L56 526L56 525L52 525L49 520L51 525L37 519L31 515z"/>
<path style="fill:#514b44; stroke:none;" d="M248 515L241 519L241 520L248 521L250 515L248 515z"/>
<path style="fill:#7e98a9; stroke:none;" d="M255 516C257.682 528.946 265.733 519.181 255 516z"/>
<path style="fill:#857368; stroke:none;" d="M128.333 518.667L128.667 519.333L128.333 518.667M35 521L39 523L35 521z"/>
<path style="fill:#514b44; stroke:none;" d="M240 521L241 522L240 521z"/>
<path style="fill:#857368; stroke:none;" d="M242.333 521.667L242.667 522.333L242.333 521.667z"/>
<path style="fill:#7e98a9; stroke:none;" d="M243 523L248 523L243 523z"/>
<path style="fill:#857368; stroke:none;" d="M246 521L247 522L246 521z"/>
<path style="fill:#b7b6b8; stroke:none;" d="M244.667 522.333L245.333 522.667L244.667 522.333z"/>
<path style="fill:#857368; stroke:none;" d="M244 523L244 524L248 524L244 523z"/>
<path style="fill:#514b44; stroke:none;" d="M241 524L241 525L247 525L241 524z"/>
<path style="fill:#857368; stroke:none;" d="M309 526L310 527L309 526z"/>
<path style="fill:#7e98a9; stroke:none;" d="M440 530L440 531L443 531L440 530M0 532L0 536L13 534L0 532M121 533C120.717 536.08 120.97 537.144 124 538L123 533L121 533z"/>
<path style="fill:#b7b6b8; stroke:none;" d="M175 534L172 544L169 541L168 541C169.845 558.451 166.624 573.14 180 587L181 587L183 585L184 586L182 588L182 589C189.695 599.1 198.831 607.918 211 612C214.038 606.799 218.833 608.557 224 608.911C231.496 609.423 253.798 613.953 259 608C255.381 608.061 253.983 607.592 253 604L256 602C272.444 604.757 265.933 583.534 264 576L253.485 568.728L235 560L240 560L240 559L226 556L225 556L208 556L208 552L205 554L204 554L203 554L201 552L201 551L205 551L200 542C188.496 541.794 183.863 541.5 175 534z"/>
<path style="fill:#7e98a9; stroke:none;" d="M410 555L403 555L403 556L429 562C424.647 578.719 415.739 581.068 400 584L400 585L408 585L408 586L400 586L400 587L420 586L420 587C413.85 589.19 400.099 603.183 413 606C411.684 609.864 412.856 611.806 417 612L416 620L416 616L395 624C399.087 623.871 402.878 625.351 402 630C411.366 629.887 415.274 633.322 424.424 636.275C428.528 637.599 432.861 636.938 436.996 638.443C443.649 640.864 448.545 646.121 456 644C460.416 650.445 468.659 645.129 473.709 649.603C478.807 654.121 472.67 661.046 468 662L464 658L464 664L472 667L478 664C477.724 670.872 476.224 673.626 480 680C475.672 684.184 482.63 688.982 483.103 693.194C483.393 695.777 480.748 698.568 480 701C486.201 700.558 491.684 700.959 495 695C498.101 700.027 501.072 701.857 507 702L499 704C502.701 709.709 510.471 705.401 516 707.274C523.661 709.869 527.295 717.843 536 719L536 720L533 720L555 738L555 768C568.394 776.105 564.208 804.93 584 805L582 800L575 777L577 778L569 763L561 763L561 768L560 768C559.409 759.195 551.522 748.921 559 741L550 730L553 732C552.138 726.659 549.51 722.183 544 721L535 704L536 709L533 702L536 702L533 697L533 696L541 686L537 688L529 687L529 688L531 689L528 690L528 685L520 680L499 678C504.196 674.086 507.16 675.35 513 677L512 669L508 670L504 641L514 640L504.024 628.605L474 608L473 616L472 616L472 610L465 610C462.818 613.534 459.886 613.073 456 613L454 607L472 606C468.522 599.961 461.453 590.324 454 590L443 579L445 584L441 589L440 589L437 586L431.85 572L433 560L438 565L447 563L446 560L438 562L440 544L437 544L437 536C430.984 536 410.482 532.808 407.603 539.228C405.349 544.256 409.463 550.017 410 555z"/>
<path style="fill:#5f5956; stroke:none;" d="M133 537L138 545L139 545L133 537z"/>
<path style="fill:#7e98a9; stroke:none;" d="M124 540L126 542L126 540L124 540M349 612L340 619L356 616L356 615L354 614L360 614L358 611L358 610L362 611L385 598L385 597L354 609C358.149 601.291 362.173 596.302 351 593L351 592C358.229 589.665 363.418 580.281 361 573L357 573L357 567L368.104 575.031L384 582L384 581L367 571L389 578C386.662 574.69 383.068 572.158 381.013 568.714C379.356 565.938 379.827 562.149 376.891 560.144C370.93 556.071 353.063 560.316 347 563L347 555L348 555L349 560L353 556L378.985 556.144L392 559L384 555L386 551L402 555C398.23 552.299 393.355 551.347 389 549.783C378.909 546.16 363.714 536.499 353.005 542.304C346.241 545.97 345.23 552.402 343.252 559C337.644 577.697 336.973 595.38 349 612z"/>
<path style="fill:#5f5956; stroke:none;" d="M372 540L373 541L372 540z"/>
<path style="fill:#7e98a9; stroke:none;" d="M95.3333 541.667L95.6667 542.333L95.3333 541.667z"/>
<path style="fill:#b7b6b8; stroke:none;" d="M347 551L347 552L352 551L352 550L350 547L363 543C355.742 539.307 351.082 546.284 347 551z"/>
<path style="fill:#7e98a9; stroke:none;" d="M440 541L440 544L448 544L448 541L440 541z"/>
<path style="fill:#b7b6b8; stroke:none;" d="M366.667 542.333L367.333 542.667L366.667 542.333M370 544C371.291 547.919 374.008 549.432 378 550L370 544M131 546L128 552L138 553L136 547L131 546z"/>
<path style="fill:#5f5956; stroke:none;" d="M141 546L144 550L141 546z"/>
<path style="fill:#b7b6b8; stroke:none;" d="M358 546L359 547L358 546z"/>
<path style="fill:#7e98a9; stroke:none;" d="M7.33333 547.667L7.66667 548.333L7.33333 547.667z"/>
<path style="fill:#857368; stroke:none;" d="M108 561L115 560L117 548C106.758 545.091 108.772 554.093 108 561z"/>
<path style="fill:#b7b6b8; stroke:none;" d="M379 548L379 550L382 550L382 548L379 548M368 549L368 550L371 550L368 549M300 551L302 553L300 557L312 557L312 552L300 551z"/>
<path style="fill:#7e98a9; stroke:none;" d="M327 550L327 552L329 552L327 550z"/>
<path style="fill:#b7b6b8; stroke:none;" d="M383 552L386 551L383 552z"/>
<path style="fill:#7e98a9; stroke:none;" d="M135 551L136 552L135 551z"/>
<path style="fill:#b7b6b8; stroke:none;" d="M378 551L379 552L378 551M386 551L384 555L392 559L379.961 556.144L353 556L349 560L348 555L347 555L347 563C353.457 560.9 371.333 555.705 377.146 560.799C381.703 564.794 384.07 573.08 389 578L367 571C369.58 575.332 374.751 576.238 379 578.615C397.283 588.842 425.813 586.064 429 562L386 551z"/>
<path style="fill:#5f5956; stroke:none;" d="M404 552L405 553L404 552z"/>
<path style="fill:#7e98a9; stroke:none;" d="M448 552L448 556L451 552L448 552z"/>
<path style="fill:#857368; stroke:none;" d="M159 556L159 559L160 559L159 556M414 556L416 558L416 556L414 556z"/>
<path style="fill:#7e98a9; stroke:none;" d="M112 557L113 558L112 557M388 571L399 576L413 576L413 568L402 568C401.986 563.986 400.34 552.75 394.032 559.033C391.054 561.999 390.845 567.439 388 571z"/>
<path style="fill:#b7b6b8; stroke:none;" d="M320 559L320 563L321 563L320 559z"/>
<path style="fill:#7e98a9; stroke:none;" d="M20 560L21 561L20 560M381 560L384 564L384 560L381 560M403 560L404 561L403 560M405 560L405 561L418 566C415.125 562.075 409.736 560.315 405 560z"/>
<path style="fill:#b7b6b8; stroke:none;" d="M375 561L374 564L375 561z"/>
<path style="fill:#857368; stroke:none;" d="M298 562L298 569L304 569L304 562L298 562z"/>
<path style="fill:#b7b6b8; stroke:none;" d="M167 563L167 566L168 566L167 563z"/>
<path style="fill:#7e98a9; stroke:none;" d="M442 565L442 567L444 567L444 565L442 565z"/>
<path style="fill:#857368; stroke:none;" d="M357 567L357 573L361 573C362.414 580.446 357.794 588.85 351 592L351 593C361.671 597.382 356.895 600.816 354 609C364.978 608.013 378.408 600.666 388 595.334C392.108 593.051 400.169 587.511 392 585L392 586C398.249 593.555 371.979 600.093 367 602C370.399 597.538 371.936 593.46 378 593L378 592C375.15 584.63 386.704 584.664 391 585L370.015 575.637L357 567z"/>
<path style="fill:#b7b6b8; stroke:none;" d="M323 568L323 569L332 570L323 568z"/>
<path style="fill:#7e98a9; stroke:none;" d="M384.667 568.333L385.333 568.667L384.667 568.333z"/>
<path style="fill:#b7b6b8; stroke:none;" d="M392 568L393 569L392 568z"/>
<path style="fill:#857368; stroke:none;" d="M284 570C283.435 576.645 290.926 578.267 293 572L284 570z"/>
<path style="fill:#7e98a9; stroke:none;" d="M175.333 572.667L175.667 573.333L175.333 572.667z"/>
<path style="fill:#b7b6b8; stroke:none;" d="M343 573C340.751 580.906 339.45 584.337 343 592L354 590L353 587L355 581L358 578L343 573z"/>
<path style="fill:#7e98a9; stroke:none;" d="M0.666667 575.333L1.33333 575.667L0.666667 575.333M4 612L5 612L7 598C19.856 598 36.3368 601.25 48.8148 597.682C52.5312 596.62 53.4095 592.095 57.1042 591.028C65.2035 588.688 70.2916 596.172 75 586L70 585L72 591L67 587L53.1042 589.407L44.9568 595.643L8 595L8 580L19 580L20 583C22.4606 580.562 22.4126 574.395 19 578L3.6034 576.082L2.00309 584.999L4 612z"/>
<path style="fill:#b7b6b8; stroke:none;" d="M295 584C301.555 587.533 308.385 584.991 309 577C301.606 576.12 297.228 575.57 295 584z"/>
<path style="fill:#5f5956; stroke:none;" d="M458 576L458 577L466 576L458 576z"/>
<path style="fill:#7e98a9; stroke:none;" d="M465 578L465 579L472 577L463 582L463 579L460 580L460 582C464.092 583.034 477.265 584.081 480 581L484 584L480 584L480 585C484.642 586.926 488.029 587.153 490 582C479.754 576.6 476.343 574.905 465 578z"/>
<path style="fill:#5f5956; stroke:none;" d="M483 575L486 577L486 576L483 575z"/>
<path style="fill:#7e98a9; stroke:none;" d="M173 576L174 577L173 576M407 576L408 577L407 576z"/>
<path style="fill:#b7b6b8; stroke:none;" d="M475.667 576.333L476.333 576.667L475.667 576.333M471 577L462 581C464.857 581.355 471.703 580.964 471 577z"/>
<path style="fill:#857368; stroke:none;" d="M287 578L288 579L287 578z"/>
<path style="fill:#5f5956; stroke:none;" d="M488 578L488 579L492 580L488 578M495 578L496 579L495 578z"/>
<path style="fill:#857368; stroke:none;" d="M290 580L290 582L292 582L290 580z"/>
<path style="fill:#7e98a9; stroke:none;" d="M391 580L391 581L394 581L391 580z"/>
<path style="fill:#5f5956; stroke:none;" d="M495.333 581.667L495.667 582.333L495.333 581.667z"/>
<path style="fill:#7e98a9; stroke:none;" d="M385.667 582.333L386.333 582.667L385.667 582.333z"/>
<path style="fill:#5f5956; stroke:none;" d="M314 584L314 585C317.337 585.903 318.935 585.859 321 583L314 584z"/>
<path style="fill:#7e98a9; stroke:none;" d="M388.667 583.333L389.333 583.667L388.667 583.333M395 583L396 584L395 583z"/>
<path style="fill:#5f5956; stroke:none;" d="M497 583L497 584L501 585L501 584L497 583M378 592L378 593C371.647 593.207 369.81 596.764 367 602C374.936 599.748 387.661 597.697 392 590L391 590L390 590L387 593L395 588C392.02 585.196 386.432 583.089 382.286 584.603C379.355 585.674 375.243 589.32 378 592z"/>
<path style="fill:#7e98a9; stroke:none;" d="M391 584L391 585L395 585L391 584z"/>
<path style="fill:#857368; stroke:none;" d="M399 587L408 586C404.863 583.949 401.437 583.99 399 587M408.667 584.333L409.333 584.667L408.667 584.333z"/>
<path style="fill:#b7b6b8; stroke:none;" d="M423 584L424 585L423 584z"/>
<path style="fill:#7e98a9; stroke:none;" d="M395 585L397 589L398 589L399 585L395 585M490 586L498 591L496 600C499.289 601.193 506.296 605.601 507 600L517 600L517 599L512 596C519.117 597.341 524.157 597.703 531 595L531 593L530 592L508.91 594.735L490 586z"/>
<path style="fill:#b7b6b8; stroke:none;" d="M135 586L136 587L135 586z"/>
<path style="fill:#514b44; stroke:none;" d="M391 586L392 587L391 586M387 593L390 590L395 588C390.788 587.6 388.987 589.381 387 593z"/>
<path style="fill:#857368; stroke:none;" d="M429 588L429 590L432 592L416 592C417.493 597.104 431.895 601.048 437 602C437 598.232 438.413 592.946 434 592L434 591L438 590L438 588L429 588z"/>
<path style="fill:#5f5956; stroke:none;" d="M394 589L395 590L394 589z"/>
<path style="fill:#7e98a9; stroke:none;" d="M396 589L397 590L396 589z"/>
<path style="fill:#b7b6b8; stroke:none;" d="M423 589L424 590L423 589z"/>
<path style="fill:#5f5956; stroke:none;" d="M393 590L394 591L393 590z"/>
<path style="fill:#7e98a9; stroke:none;" d="M395 590L396 591L395 590M247 592L248 600L253 599L254 595L247 592z"/>
<path style="fill:#857368; stroke:none;" d="M296 592L297 593L296 592z"/>
<path style="fill:#7e98a9; stroke:none;" d="M392 592L393 593L392 592z"/>
<path style="fill:#857368; stroke:none;" d="M448 592L440 594L440 595L450 592L448 592z"/>
<path style="fill:#7e98a9; stroke:none;" d="M482 593L489 596L482 593z"/>
<path style="fill:#514b44; stroke:none;" d="M383 594L383 595L387 594L383 594z"/>
<path style="fill:#7e98a9; stroke:none;" d="M391 593L392 594L391 593M389 594L390 595L389 594z"/>
<path style="fill:#857368; stroke:none;" d="M156 595L156 596L159 596L156 595z"/>
<path style="fill:#7e98a9; stroke:none;" d="M190.667 595.333L191.333 595.667L190.667 595.333M387 595L388 596L387 595M60 597L60 598L65 600C63.9996 596.964 63.1372 596.506 60 597M132 597C133.339 601.012 135.971 601.729 140 602L132 597z"/>
<path style="fill:#b7b6b8; stroke:none;" d="M349 597L348 605L353 605L350 601L352 598L349 597z"/>
<path style="fill:#7e98a9; stroke:none;" d="M583 597L581 600C583.251 599.527 584.118 599.14 583 597M535 598L534 600L536 600L535 598M179 599L180 600L179 599M42 604L42 606C48.466 605.999 52.9933 605.433 58 601L42 604z"/>
<path style="fill:#857368; stroke:none;" d="M448 603L451 600L448 603z"/>
<path style="fill:#7e98a9; stroke:none;" d="M536 605L536 610L542 608L542 609L538 610C538.076 619.123 544.126 636.802 552 642C550.125 656.181 575.896 663.376 583 673L592 677L591 680L595 684C600.557 683.537 602.896 687.356 605 692L606 692L606 628L600 628L600 622L592 622L597 624L597 628L594 628L594 632L592 632L592 626L584 626L584 616L576 616C575.151 604.781 563.863 611.388 560 603L536 605M595 608L600 608L600 603L595 608z"/>
<path style="fill:#b7b6b8; stroke:none;" d="M425 605L432 620L436 617L437 626C443.451 629.105 450.402 626.534 454 634L461 635L459 625L455 626C452.661 620.061 431.248 603.835 425 605z"/>
<path style="fill:#7e98a9; stroke:none;" d="M37 605L37 606L40 606L37 605M511 605L510 608L515 609L515 608L511 605M181 606L181 607L181 608L185 608L185 607L181 606z"/>
<path style="fill:#b7b6b8; stroke:none;" d="M414 606L415 607L414 606z"/>
<path style="fill:#7e98a9; stroke:none;" d="M187 607L188 608L187 607M372.667 607.333L373.333 607.667L372.667 607.333M382.667 607.333L383.333 607.667L382.667 607.333M457 608L458 609L457 608M367 610L362 616L368 614L367 610M24 611L24 613C30.0836 613 49.2673 616.205 53 612L24 611M59.3333 612.667L59.6667 613.333L59.3333 612.667z"/>
<path style="fill:#5f5956; stroke:none;" d="M339 615L342 613L339 615z"/>
<path style="fill:#7e98a9; stroke:none;" d="M584 613L584 616L592 616L592 613L584 613M605 613C602.173 617.064 601.591 620.225 603 625L606 625L605 613z"/>
<path style="fill:#5f5956; stroke:none;" d="M312 615L316 618L315 615L312 615z"/>
<path style="fill:#7e98a9; stroke:none;" d="M4 616L6 618L6 616L4 616z"/>
<path style="fill:#5f5956; stroke:none;" d="M318 620L318 624L326 625L323 623L335 623C338.011 611.694 323.651 620.077 318 620M337.333 617.667L337.667 618.333L337.333 617.667z"/>
<path style="fill:#857368; stroke:none;" d="M331.667 618.333L332.333 618.667L331.667 618.333z"/>
<path style="fill:#7e98a9; stroke:none;" d="M339 619L340 620L339 619M24 620L24 621L27 621L24 620M28 620L28 621L59 625C50.8444 618.085 37.9587 620 28 620z"/>
<path style="fill:#857368; stroke:none;" d="M177 620L183 631L184 631C183.361 626.199 181.302 622.354 177 620z"/>
<path style="fill:#7e98a9; stroke:none;" d="M338 620L337 624L338 620M342 620L343 621L342 620M384 621L384 623L386 623L384 621M376 622L372 624C376.943 633.448 386.68 629.65 392 623L378 622L376 622z"/>
<path style="fill:#b7b6b8; stroke:none;" d="M456 622L456 624L460 624L460 622L456 622z"/>
<path style="fill:#7e98a9; stroke:none;" d="M200 623L201 624L200 623M288 623L289 624L288 623z"/>
<path style="fill:#5f5956; stroke:none;" d="M328.667 624.333L329.333 624.667L328.667 624.333z"/>
<path style="fill:#7e98a9; stroke:none;" d="M365 624L365 625L368 625L365 624M601 624L602 625L601 624M62 625L66 627L66 626L62 625z"/>
<path style="fill:#857368; stroke:none;" d="M478.333 625.667L478.667 626.333L478.333 625.667z"/>
<path style="fill:#7e98a9; stroke:none;" d="M367 626L368 627L367 626M337.333 627.667L337.667 628.333L337.333 627.667z"/>
<path style="fill:#857368; stroke:none;" d="M578 632C579.58 634.146 580.462 634.17 582 632L578 632M605 632L606 633L605 632z"/>
<path style="fill:#7e98a9; stroke:none;" d="M380 634L380 635L383 634L384 635C379.968 645.98 378.324 666.614 369 674L364 644L363 644L363 648L362 648L360 642L375 637L375 636L352 639L352 647L355 646L354 651L357 651C355.74 654.723 351.72 660.865 355 664L357 680C365.022 684.173 368.749 679.254 373.128 672.83C379.346 663.71 385.519 643.964 384 633L380 634z"/>
<path style="fill:#857368; stroke:none;" d="M360 642L362 648L363 648L363 644L364 644L369 674C377.845 669.362 381.484 644.485 384 635L383 634L360 642z"/>
<path style="fill:#7e98a9; stroke:none;" d="M376 635L376 636L379 636L376 635z"/>
<path style="fill:#5f5956; stroke:none;" d="M381 635C370.428 641.939 367.111 644.561 367 658C379.153 655.954 377.5 648.149 382 638L379 639L379 638L381 635z"/>
<path style="fill:#514b44; stroke:none;" d="M379 639L382 637L379 639z"/>
<path style="fill:#857368; stroke:none;" d="M448 639L448 640L453 641L452 638L448 639z"/>
<path style="fill:#7e98a9; stroke:none;" d="M325 639L326 640L325 639z"/>
<path style="fill:#857368; stroke:none;" d="M456 639L456 641L458 641L456 639M494 640L501 643L501 642L494 640M314 643L314 645L321 648L323 645L323 644L320 641L314 643M583 641L582 643L584 643L583 641z"/>
<path style="fill:#7e98a9; stroke:none;" d="M440 642L440 645L441 645L440 642z"/>
<path style="fill:#857368; stroke:none;" d="M578.667 642.333L579.333 642.667L578.667 642.333M375 644L376 645L375 644z"/>
<path style="fill:#7e98a9; stroke:none;" d="M447 647L448 648L447 647z"/>
<path style="fill:#857368; stroke:none;" d="M373 648L370 656L377 648L373 648z"/>
<path style="fill:#5f5956; stroke:none;" d="M370 660L371 668L372 668L370 660z"/>
<path style="fill:#7e98a9; stroke:none;" d="M398 662C401.239 668.249 409.754 668.21 416 669C412.626 663.342 404.241 660.587 398 662z"/>
<path style="fill:#857368; stroke:none;" d="M366 663L367 664L366 663z"/>
<path style="fill:#7e98a9; stroke:none;" d="M450 664L450 666L452 666L452 664L450 664z"/>
<path style="fill:#857368; stroke:none;" d="M576 664L577 665L576 664z"/>
<path style="fill:#7e98a9; stroke:none;" d="M455 665L455 669L456 669L455 665M448 669L449 670L448 669M28 672L28 673L32 673L28 672M34 672L36 680L39 676L45 678L44 671L41 675L34 672M51 671C48.915 675.429 49.1521 678.216 54 680L53 671L51 671z"/>
<path style="fill:#5f5956; stroke:none;" d="M370 671L371 672L370 671z"/>
<path style="fill:#7e98a9; stroke:none;" d="M58 672L57 680L65 674L58 672M68 672L68 680L70 672L68 672M78 672L79 680L83 673L87 681L91 680L91 672L78 672M101 681L101 680L97 679L98 675L103 675C98.0819 668.075 90.5863 680.188 101 681z"/>
<path style="fill:#857368; stroke:none;" d="M339 673L345 678L349 693C356.679 690.424 345.594 677.234 344 672L339 673z"/>
<path style="fill:#7e98a9; stroke:none;" d="M446 672L448 674L448 672L446 672z"/>
<path style="fill:#b7b6b8; stroke:none;" d="M60 673L62 677L60 673z"/>
<path style="fill:#7e98a9; stroke:none;" d="M128 677L137 677C134.578 673.099 130.633 673.347 128 677z"/>
<path style="fill:#857368; stroke:none;" d="M499 673L500 674L499 673z"/>
<path style="fill:#7e98a9; stroke:none;" d="M105 675L106 680L114 681L114 675L108 674L105 675M116 675L118 681L125 680L125 675L116 675M140 674C138.423 678.501 138.368 682.745 144 683L142 674L140 674M146 682L160 679L159 682C162.39 683.392 164.875 683.96 166 680L160 677L164 676L164 675L149 681L154 676L154 674C148.108 674.193 146.972 676.514 146 682M28 675L28 680C31.8662 678.9 31.2622 676.604 28 675M167 675L168 676L167 675M169 675L172 683L174 683L175 675L169 675z"/>
<path style="fill:#b7b6b8; stroke:none;" d="M496.333 675.667L496.667 676.333L496.333 675.667z"/>
<path style="fill:#7e98a9; stroke:none;" d="M472 677L472 680L473 680L472 677M135 679L136 681L135 681L130 682C132.791 682.626 136.471 682.652 135 679z"/>
<path style="fill:#b7b6b8; stroke:none;" d="M367 679L368 680L367 679M496 680L496 682L498 682L498 680L496 680z"/>
<path style="fill:#857368; stroke:none;" d="M598.667 680.333L599.333 680.667L598.667 680.333z"/>
<path style="fill:#5f5956; stroke:none;" d="M591 684L592 685L591 684z"/>
<path style="fill:#7e98a9; stroke:none;" d="M596 684L600 688L599 684L596 684z"/>
<path style="fill:#857368; stroke:none;" d="M346 688L347 689L346 688z"/>
<path style="fill:#b7b6b8; stroke:none;" d="M486.667 688.333L487.333 688.667L486.667 688.333z"/>
<path style="fill:#857368; stroke:none;" d="M532 688L533 689L532 688z"/>
<path style="fill:#5f5956; stroke:none;" d="M595 690L599 697L595 690z"/>
<path style="fill:#7e98a9; stroke:none;" d="M599 690L601 692L599 690M202 691L202 694L203 694L202 691M601 694L603 693L603 694L605 701L606 701L603 697L605 692L601 694M27 708C30.6878 705.193 29.9972 700.283 30 696L36 696C28.4777 685.688 27.2846 704.089 27 708M41 696C41.4245 702.58 47.486 716.813 54 705C40.8663 709.052 41.1024 693.446 54 700C53.7929 692.06 46.1697 693.416 41 696M62 707C63.9579 703.437 67.914 703.673 69.9676 700.568C74.0767 694.356 57.2017 688.726 59.5139 702.941C59.8606 705.073 60.3616 705.778 62 707M183 697L197 695C192.765 692.985 186.174 693.293 183 697z"/>
<path style="fill:#857368; stroke:none;" d="M349 694L349 697L350 697L349 694z"/>
<path style="fill:#7e98a9; stroke:none;" d="M100 695L99 710L104 711L102 695L100 695M107 711L112 711C110.957 707.656 110.58 692.956 116 701L119 700C110.69 685.189 108.119 704.975 107 711M127 695L125 700L130 700L127 695M153 696L153 699C157.451 703.113 156.999 708.302 157 714L166 696L153 696z"/>
<path style="fill:#b7b6b8; stroke:none;" d="M62 696L62 701L68 701C67.3483 697.089 65.8644 696.3 62 696z"/>
<path style="fill:#7e98a9; stroke:none;" d="M81 696L81 710C85.964 708.936 84 700.205 84 696L81 696M89 696L89 702L90 703L98 700L92 696L89 696M138 707L139 707C140.358 698.482 144.354 700.844 151 700C144.03 692.689 135.089 697.056 138 707M426 696L426 697L435 697L426 696z"/>
<path style="fill:#b7b6b8; stroke:none;" d="M506 697L506 698C511.866 701.075 525.876 703.772 529 696L506 697z"/>
<path style="fill:#5f5956; stroke:none;" d="M599 698L601.831 715.039L600 736L606 738C606 725.643 609.475 707.009 599 698z"/>
<path style="fill:#7e98a9; stroke:none;" d="M53 701L54 702L53 701M129 701L131 704L131 705L132 712L133 712C133.267 708.073 132.419 703.244 129 701M208 701C208 713.888 210.109 731.526 221 740L211.701 715L208 701z"/>
<path style="fill:#857368; stroke:none;" d="M352 703L354 705L352 703z"/>
<path style="fill:#7e98a9; stroke:none;" d="M376 703L376 704L387 705L384 717L392 709L400 711L400 709L395 709C392.644 702.128 382.065 703.013 376 703M89 704L88 711C91.6552 710.217 92.1595 705.82 89 704M122 704L119 711L124 711L125 704L122 704z"/>
<path style="fill:#857368; stroke:none;" d="M390.667 706.333L391.333 706.667L390.667 706.333z"/>
<path style="fill:#7e98a9; stroke:none;" d="M149 707L144 712L139 709C142.176 712.319 150.447 713.969 149 707M464 709L464 712C473.418 719.005 484.482 719 496 719L496 722C502.75 722.729 507.616 726.193 511 732L537 741L538 738L535 738L531 728C526.12 725.951 517.208 715.484 512 720C499.869 711.522 479.15 705.518 464 709z"/>
<path style="fill:#857368; stroke:none;" d="M359 710L363 714L359 710z"/>
<path style="fill:#5f5956; stroke:none;" d="M599 711L600 712L599 711z"/>
<path style="fill:#b7b6b8; stroke:none;" d="M414.667 720.333L415.333 720.667L414.667 720.333z"/>
<path style="fill:#7e98a9; stroke:none;" d="M427 723C431.864 725.887 436.435 728.246 438 734L450 733L450 743C445.498 741.997 439.827 739.517 438 745L439 745L439 742L443 742L443 748L444 748L446 745L456 745L457 745C456.754 739.931 454.684 735.902 461 735L448 731L450 729C443.913 725.32 433.896 718.95 427 723z"/>
<path style="fill:#857368; stroke:none;" d="M410 728L414 732L414 731L411 731L417 728L415 731L420 729C416.683 725.381 414.25 726.218 410 728z"/>
<path style="fill:#7e98a9; stroke:none;" d="M411 727L412 728L411 727z"/>
<path style="fill:#5f5956; stroke:none;" d="M411 731L412 731L415 731L417 728L411 731z"/>
<path style="fill:#7e98a9; stroke:none;" d="M409.333 729.667L409.667 730.333L409.333 729.667z"/>
<path style="fill:#514b44; stroke:none;" d="M412 729L412 731L414 731L414 729L412 729z"/>
<path style="fill:#7e98a9; stroke:none;" d="M417.667 729.333L418.333 729.667L417.667 729.333M430 729L430 731L432 731L432 729L430 729M466 729L467 730L466 729M471 729L472 730L471 729M416 730L417 731L416 730M410 731L411 732L410 731M414 731L415 732L414 731M472.667 731.333L473.333 731.667L472.667 731.333M475 731L476 734L466 737L469 739C474.741 736.194 479.498 740.808 485 742.363C491.856 744.3 498.936 741.478 505 746L506 745L504 743C509.124 742.308 512.248 744.113 514 749L508 749L508 750L517 756L518 756L523 752L521 748L518 750L518 743L514 740L520 739L520 738L512 738L512 742C503.714 738.231 487.399 743.112 484 732L475 731M425 736L427 734L428 734L436 740L437 740L438 737L431 736L430 732L425 736z"/>
<path style="fill:#857368; stroke:none;" d="M427 734L422 739L428 735L430 739C426.045 739.552 423.539 740.133 422 744L437 739L437 738L427 734z"/>
<path style="fill:#b7b6b8; stroke:none;" d="M379 735L380 736L379 735z"/>
<path style="fill:#5f5956; stroke:none;" d="M427 735L419 744L430 739L427 735z"/>
<path style="fill:#857368; stroke:none;" d="M458 752L454 752L454 753L464 760L465 760L464 756L468 757L464 764L465 764C466.031 761.937 467.979 761.701 469 760C471.077 756.538 465.342 749.585 471 751L471 745L470 745L469 748L468 741L469 741L469 744L470 744L469 737L465 736L464 739C469.342 742.481 464.448 746.295 462 750L461 750L463 736C453.096 733.163 455.474 745.893 458 752z"/>
<path style="fill:#7e98a9; stroke:none;" d="M462 735L461 750L462 750C464.354 747.364 471.173 740.537 464 739L462 735M423 736L424 737L423 736M447 736L448 737L447 736z"/>
<path style="fill:#857368; stroke:none;" d="M475 736L478 738L478 737L475 736z"/>
<path style="fill:#7e98a9; stroke:none;" d="M422 737L423 738L422 737M420 745L420 744L422 739C417.687 738.377 416.602 742.734 420 745z"/>
<path style="fill:#b7b6b8; stroke:none;" d="M483 738L484 739L483 738z"/>
<path style="fill:#857368; stroke:none;" d="M420 739L421 740L420 739z"/>
<path style="fill:#5f5956; stroke:none;" d="M431 739L432 740L431 739z"/>
<path style="fill:#b7b6b8; stroke:none;" d="M487 739L488 740L487 739M328 740L328 742L335 742L328 740z"/>
<path style="fill:#857368; stroke:none;" d="M419 740L420 741L419 740z"/>
<path style="fill:#7e98a9; stroke:none;" d="M427 740L427 741L431 741L427 740M434 740L435 741L434 740z"/>
<path style="fill:#857368; stroke:none;" d="M418 741L418 744L419 744L418 741z"/>
<path style="fill:#7e98a9; stroke:none;" d="M426 741L427 742L426 741M431 741L431 742L434 742L431 741z"/>
<path style="fill:#b7b6b8; stroke:none;" d="M463 741L463 746L466 745L463 741z"/>
<path style="fill:#5f5956; stroke:none;" d="M468 741L469 748L470 748L468 741z"/>
<path style="fill:#857368; stroke:none;" d="M486.667 741.333L487.333 741.667L486.667 741.333M491 741L491 742L498 742L491 741z"/>
<path style="fill:#7e98a9; stroke:none;" d="M424.667 742.333L425.333 742.667L424.667 742.333z"/>
<path style="fill:#857368; stroke:none;" d="M439 742L440 751L442 751L443 742L439 742M499 743L499 744C503.794 747.331 508.044 749.615 514 749C512.861 743.649 509.233 741.724 504 743L506 745L505 746L499 743z"/>
<path style="fill:#7e98a9; stroke:none;" d="M423 743L421 744L421 745L423 743z"/>
<path style="fill:#5f5956; stroke:none;" d="M440 743L440 750L442 743L440 743z"/>
<path style="fill:#b7b6b8; stroke:none;" d="M454 743C453.053 746.886 453.563 749.719 457 752L456 743L454 743z"/>
<path style="fill:#7e98a9; stroke:none;" d="M470.333 743.667L470.667 744.333L470.333 743.667M559 743L560 744L559 743z"/>
<path style="fill:#857368; stroke:none;" d="M420 744L421 745L420 744z"/>
<path style="fill:#b7b6b8; stroke:none;" d="M449 744L450 745L449 744z"/>
<path style="fill:#857368; stroke:none;" d="M451 744L446 748L447 748L453 750L454 750L453 744L451 744z"/>
<path style="fill:#7e98a9; stroke:none;" d="M452.333 745.667L452.667 746.333L452.333 745.667z"/>
<path style="fill:#5f5956; stroke:none;" d="M457 745L457 747L459 747L459 745L457 745z"/>
<path style="fill:#7e98a9; stroke:none;" d="M501 745L502 746L501 745z"/>
<path style="fill:#5f5956; stroke:none;" d="M447 746L451 750L452 756C458.196 755.972 461.093 758.83 461 765L462 765L468 757L464 756L465 760L464 760L454 750L451 748L453 749L453 748L447 746z"/>
<path style="fill:#7e98a9; stroke:none;" d="M471 746L469 759L470 759L471 746M502 746L503 747L502 746M438.333 747.667L438.667 748.333L438.333 747.667M503 747L504 748L503 747z"/>
<path style="fill:#514b44; stroke:none;" d="M440 748L441 749L440 748z"/>
<path style="fill:#7e98a9; stroke:none;" d="M446 748L451 757L452 757L446 748z"/>
<path style="fill:#514b44; stroke:none;" d="M448.667 748.333L449.333 748.667L448.667 748.333M451 748L453 751L451 748z"/>
<path style="fill:#7e98a9; stroke:none;" d="M456 748L457 749L456 748M505.667 748.333L506.333 748.667L505.667 748.333z"/>
<path style="fill:#857368; stroke:none;" d="M447 749L448 750L447 749z"/>
<path style="fill:#7e98a9; stroke:none;" d="M463 749L464 750L463 749M439 750L442 752L442 751L439 750M442 750L443 751L442 750z"/>
<path style="fill:#857368; stroke:none;" d="M449 750L451 752L451 750L449 750z"/>
<path style="fill:#7e98a9; stroke:none;" d="M454.333 750.667L454.667 751.333L454.333 750.667z"/>
<path style="fill:#5f5956; stroke:none;" d="M469 750L468 755L469 755L469 750z"/>
<path style="fill:#7e98a9; stroke:none;" d="M457 751L458 752L457 751M455.667 752.333L456.333 752.667L455.667 752.333M466 752L467 753L466 752z"/>
<path style="fill:#857368; stroke:none;" d="M470 752L471 753L470 752z"/>
<path style="fill:#b7b6b8; stroke:none;" d="M517 752L518 753L517 752z"/>
<path style="fill:#7e98a9; stroke:none;" d="M524.667 752.333L525.333 752.667L524.667 752.333z"/>
<path style="fill:#857368; stroke:none;" d="M469 753L470 754L469 753M451 755L452 756L451 755M452 756L452 757L456 756L452 756z"/>
<path style="fill:#7e98a9; stroke:none;" d="M522 755L528 760L528 759L522 755M454 756L454 757L460 759L460 758L454 756z"/>
<path style="fill:#857368; stroke:none;" d="M457 756L458 757L457 756M459 757L460 758L459 757M460 758L461 762L462 762L460 758z"/>
<path style="fill:#7e98a9; stroke:none;" d="M560 759L561 760L560 759M460 760L460 765L461 765L460 760M468 760L469 761L468 760M466.667 761.333L467.333 761.667L466.667 761.333M526 761L526 763L528 763L528 761L526 761M465 762L461 765L461 766C463.991 766.059 465.68 765.201 465 762z"/>
<path style="fill:#514b44; stroke:none;" d="M462 763L462 765L464 765L464 763L462 763z"/>
<path style="fill:#7e98a9; stroke:none;" d="M243 764L246 767L243 764M528 764L527 769C532.047 769 533 775.823 533 780L535 777L536 777L535 784L536 784C538.474 776.005 535.545 768.198 528 764z"/>
<path style="fill:#857368; stroke:none;" d="M462 765L463 766L462 765z"/>
<path style="fill:#5f5956; stroke:none;" d="M463 765L464 766L463 765z"/>
<path style="fill:#857368; stroke:none;" d="M529 767L534 772L529 767z"/>
<path style="fill:#7e98a9; stroke:none;" d="M247 768L248 769L247 768M530.667 775.333L531.333 775.667L530.667 775.333M476 783L476 784L480 785L484 783L476 783M539 783L538 784L540 788L541 788L542 784L539 783z"/>
<path style="fill:#857368; stroke:none;" d="M576 784L577 785L576 784z"/>
<path style="fill:#7e98a9; stroke:none;" d="M336 791L337 792L336 791M295 794L295 795L299 796L299 795L295 794M308 799L308 801C314.564 800.865 330.094 799.535 334 794L308 799M302 797L302 798L305 798L302 797z"/>
</svg>
